<svg width="20" height="20" viewBox="0 0 20 20" fill="none" xmlns="http://www.w3.org/2000/svg">
<path d="M15.723 6.0692L14.8599 6.93226L13.0672 5.13949L13.9309 4.27637L13.9309 4.27631C13.9934 4.21382 14.0782 4.17871 14.1666 4.17871C14.2549 4.17871 14.3396 4.21375 14.4021 4.27614C14.4021 4.27616 14.4021 4.27617 14.4022 4.27619C14.4022 4.27623 14.4022 4.27627 14.4023 4.27631L15.7229 5.59781L15.723 5.59787C15.7855 5.66038 15.8206 5.74515 15.8206 5.83353C15.8206 5.92189 15.7855 6.00664 15.723 6.06915C15.723 6.06916 15.723 6.06918 15.723 6.0692ZM3.8291 16.1669V14.3748L11.3282 6.8789L13.1212 8.67187L5.62616 16.1669H3.8291ZM3.80475 14.3992L3.80508 14.3988C3.80497 14.3989 3.80486 14.399 3.80475 14.3992Z" stroke="#4D4D4D"/>
</svg>
