<svg width="180" height="60" viewBox="0 0 180 60" fill="none" xmlns="http://www.w3.org/2000/svg">
<g filter="url(#filter0_d_775_5819)">
<path d="M10 30C10 18.9543 18.9543 10 30 10H144.395C158.202 10 169.395 21.1929 169.395 35V50H30C18.9543 50 10 41.0457 10 30Z" fill="white" shape-rendering="crispEdges"/>
<path d="M65.6472 24.68C65.0392 24.68 64.4899 24.7867 63.9992 25C63.5086 25.2027 63.0926 25.5067 62.7512 25.912C62.4099 26.3067 62.1486 26.792 61.9672 27.368C61.7859 27.9333 61.6952 28.5733 61.6952 29.288C61.6952 30.2267 61.8392 31.0427 62.1272 31.736C62.4259 32.4293 62.8632 32.9627 63.4392 33.336C64.0259 33.7093 64.7566 33.896 65.6312 33.896C66.1326 33.896 66.6072 33.8533 67.0552 33.768C67.5032 33.6827 67.9406 33.576 68.3672 33.448V34.696C67.9406 34.856 67.4979 34.9733 67.0392 35.048C66.5912 35.1227 66.0526 35.16 65.4232 35.16C64.2606 35.16 63.2899 34.92 62.5112 34.44C61.7326 33.96 61.1459 33.2773 60.7512 32.392C60.3672 31.5067 60.1752 30.4667 60.1752 29.272C60.1752 28.408 60.2926 27.6187 60.5272 26.904C60.7726 26.1893 61.1246 25.5707 61.5832 25.048C62.0526 24.5253 62.6286 24.1253 63.3112 23.848C63.9939 23.56 64.7779 23.416 65.6632 23.416C66.2499 23.416 66.8152 23.4747 67.3592 23.592C67.9032 23.7093 68.3886 23.8747 68.8152 24.088L68.2392 25.304C67.8872 25.144 67.4926 25 67.0552 24.872C66.6286 24.744 66.1592 24.68 65.6472 24.68ZM72.0766 26.408C72.0766 26.6107 72.0659 26.8187 72.0446 27.032C72.0339 27.2453 72.0179 27.4373 71.9966 27.608H72.0926C72.2739 27.3093 72.5033 27.064 72.7806 26.872C73.0579 26.68 73.3673 26.536 73.7086 26.44C74.0499 26.3333 74.4019 26.28 74.7646 26.28C75.4579 26.28 76.0339 26.392 76.4926 26.616C76.9619 26.8293 77.3139 27.1653 77.5486 27.624C77.7833 28.0827 77.9006 28.68 77.9006 29.416V35H76.5086V29.512C76.5086 28.8187 76.3539 28.3013 76.0446 27.96C75.7353 27.6187 75.2499 27.448 74.5886 27.448C73.9486 27.448 73.4473 27.5707 73.0846 27.816C72.7219 28.0507 72.4606 28.4027 72.3006 28.872C72.1513 29.3307 72.0766 29.896 72.0766 30.568V35H70.6686V22.84H72.0766V26.408ZM83.8072 26.28C84.8526 26.28 85.6259 26.5093 86.1272 26.968C86.6286 27.4267 86.8792 28.1573 86.8792 29.16V35H85.8552L85.5832 33.784H85.5192C85.2739 34.0933 85.0179 34.3547 84.7512 34.568C84.4952 34.7707 84.1966 34.92 83.8552 35.016C83.5246 35.112 83.1192 35.16 82.6392 35.16C82.1272 35.16 81.6632 35.0693 81.2472 34.888C80.8419 34.7067 80.5219 34.4293 80.2872 34.056C80.0526 33.672 79.9352 33.192 79.9352 32.616C79.9352 31.7627 80.2712 31.1067 80.9432 30.648C81.6152 30.1787 82.6499 29.9227 84.0472 29.88L85.5032 29.832V29.32C85.5032 28.6053 85.3486 28.1093 85.0392 27.832C84.7299 27.5547 84.2926 27.416 83.7272 27.416C83.2792 27.416 82.8526 27.4853 82.4472 27.624C82.0419 27.752 81.6632 27.9013 81.3112 28.072L80.8792 27.016C81.2526 26.8133 81.6952 26.6427 82.2072 26.504C82.7192 26.3547 83.2526 26.28 83.8072 26.28ZM84.2232 30.856C83.1566 30.8987 82.4152 31.0693 81.9992 31.368C81.5939 31.6667 81.3912 32.088 81.3912 32.632C81.3912 33.112 81.5352 33.464 81.8232 33.688C82.1219 33.912 82.5006 34.024 82.9592 34.024C83.6846 34.024 84.2872 33.8267 84.7672 33.432C85.2472 33.0267 85.4872 32.408 85.4872 31.576V30.808L84.2232 30.856ZM92.392 34.008C92.6053 34.008 92.824 33.992 93.048 33.96C93.272 33.9173 93.4533 33.8747 93.592 33.832V34.904C93.4426 34.9787 93.2293 35.0373 92.952 35.08C92.6746 35.1333 92.408 35.16 92.152 35.16C91.704 35.16 91.288 35.0853 90.904 34.936C90.5306 34.776 90.2266 34.504 89.992 34.12C89.7573 33.736 89.64 33.1973 89.64 32.504V27.512H88.424V26.84L89.656 26.28L90.216 24.456H91.048V26.424H93.528V27.512H91.048V32.472C91.048 32.9947 91.1706 33.384 91.416 33.64C91.672 33.8853 91.9973 34.008 92.392 34.008ZM98.7652 23.576C99.7146 23.576 100.509 23.6667 101.149 23.848C101.8 24.0293 102.285 24.328 102.605 24.744C102.936 25.16 103.101 25.7147 103.101 26.408C103.101 26.856 103.016 27.256 102.845 27.608C102.685 27.9493 102.44 28.2373 102.109 28.472C101.789 28.696 101.395 28.8507 100.925 28.936V29.016C101.405 29.0907 101.837 29.2293 102.221 29.432C102.616 29.6347 102.925 29.9227 103.149 30.296C103.373 30.6693 103.485 31.1547 103.485 31.752C103.485 32.4453 103.325 33.0373 103.005 33.528C102.685 34.008 102.227 34.376 101.629 34.632C101.043 34.8773 100.339 35 99.5172 35H95.5012V23.576H98.7652ZM99.0532 28.44C100.035 28.44 100.707 28.2853 101.069 27.976C101.432 27.656 101.613 27.1867 101.613 26.568C101.613 25.9387 101.389 25.4907 100.941 25.224C100.504 24.9467 99.7999 24.808 98.8292 24.808H96.9412V28.44H99.0532ZM96.9412 29.64V33.784H99.2452C100.259 33.784 100.963 33.5867 101.357 33.192C101.752 32.7973 101.949 32.28 101.949 31.64C101.949 31.2347 101.859 30.8827 101.677 30.584C101.507 30.2853 101.213 30.056 100.797 29.896C100.392 29.7253 99.8372 29.64 99.1332 29.64H96.9412ZM113.171 30.696C113.171 31.4107 113.075 32.0453 112.883 32.6C112.702 33.144 112.435 33.608 112.083 33.992C111.742 34.376 111.321 34.6693 110.819 34.872C110.329 35.064 109.779 35.16 109.171 35.16C108.606 35.16 108.083 35.064 107.603 34.872C107.123 34.6693 106.707 34.376 106.355 33.992C106.003 33.608 105.726 33.144 105.523 32.6C105.331 32.0453 105.235 31.4107 105.235 30.696C105.235 29.7467 105.395 28.9467 105.715 28.296C106.035 27.6347 106.494 27.1333 107.091 26.792C107.689 26.44 108.398 26.264 109.219 26.264C109.998 26.264 110.681 26.44 111.267 26.792C111.865 27.1333 112.329 27.6347 112.659 28.296C113.001 28.9467 113.171 29.7467 113.171 30.696ZM106.691 30.696C106.691 31.368 106.777 31.9547 106.947 32.456C107.129 32.9467 107.406 33.3253 107.779 33.592C108.153 33.8587 108.627 33.992 109.203 33.992C109.779 33.992 110.254 33.8587 110.627 33.592C111.001 33.3253 111.273 32.9467 111.443 32.456C111.625 31.9547 111.715 31.368 111.715 30.696C111.715 30.0133 111.625 29.432 111.443 28.952C111.262 28.472 110.985 28.104 110.611 27.848C110.249 27.5813 109.774 27.448 109.187 27.448C108.313 27.448 107.678 27.736 107.283 28.312C106.889 28.888 106.691 29.6827 106.691 30.696ZM118.267 34.008C118.48 34.008 118.699 33.992 118.923 33.96C119.147 33.9173 119.328 33.8747 119.467 33.832V34.904C119.318 34.9787 119.104 35.0373 118.827 35.08C118.55 35.1333 118.283 35.16 118.027 35.16C117.579 35.16 117.163 35.0853 116.779 34.936C116.406 34.776 116.102 34.504 115.867 34.12C115.632 33.736 115.515 33.1973 115.515 32.504V27.512H114.299V26.84L115.531 26.28L116.091 24.456H116.923V26.424H119.403V27.512H116.923V32.472C116.923 32.9947 117.046 33.384 117.291 33.64C117.547 33.8853 117.872 34.008 118.267 34.008Z" fill="#4D4D4D"/>
</g>
<defs>
<filter id="filter0_d_775_5819" x="0" y="0" width="179.395" height="60" filterUnits="userSpaceOnUse" color-interpolation-filters="sRGB">
<feFlood flood-opacity="0" result="BackgroundImageFix"/>
<feColorMatrix in="SourceAlpha" type="matrix" values="0 0 0 0 0 0 0 0 0 0 0 0 0 0 0 0 0 0 127 0" result="hardAlpha"/>
<feOffset/>
<feGaussianBlur stdDeviation="5"/>
<feComposite in2="hardAlpha" operator="out"/>
<feColorMatrix type="matrix" values="0 0 0 0 0.8 0 0 0 0 0.8 0 0 0 0 0.8 0 0 0 1 0"/>
<feBlend mode="normal" in2="BackgroundImageFix" result="effect1_dropShadow_775_5819"/>
<feBlend mode="normal" in="SourceGraphic" in2="effect1_dropShadow_775_5819" result="shape"/>
</filter>
</defs>
</svg>
