<svg width="20" height="20" viewBox="0 0 20 20" fill="none" xmlns="http://www.w3.org/2000/svg">
<circle cx="10" cy="10" r="10" fill="#4FB472"/>
<path d="M14.1992 6.86543C14.2939 6.966 14.3447 7.10004 14.3405 7.23808C14.3363 7.37612 14.2775 7.50686 14.177 7.60154L8.67004 12.7918C8.55778 12.8975 8.40861 12.9551 8.25443 12.9523C8.10025 12.9494 7.95331 12.8863 7.84504 12.7765L5.98393 10.8876C5.93465 10.8392 5.89549 10.7815 5.86874 10.7178C5.84199 10.6541 5.82818 10.5857 5.82813 10.5166C5.82807 10.4475 5.84175 10.3791 5.86839 10.3153C5.89503 10.2516 5.93409 10.1938 5.98329 10.1453C6.03249 10.0967 6.09085 10.0585 6.15497 10.0328C6.21909 10.007 6.28769 9.99432 6.35678 9.99536C6.42586 9.9964 6.49405 10.0112 6.55737 10.0388C6.62069 10.0665 6.67787 10.1064 6.7256 10.1564L8.27699 11.7307L13.4631 6.8432C13.5637 6.74856 13.6977 6.69773 13.8358 6.7019C13.9738 6.70606 14.1045 6.76489 14.1992 6.86543Z" fill="white"/>
</svg>
