<svg width="16" height="10" viewBox="0 0 16 10" fill="none" xmlns="http://www.w3.org/2000/svg">
<path fill-rule="evenodd" clip-rule="evenodd" d="M0.366694 0.889641C0.595564 0.685979 0.902493 0.57469 1.22003 0.580232C1.53757 0.585773 1.83975 0.70769 2.06015 0.919193L7.98723 6.73811L13.9143 0.919193C14.0221 0.809339 14.1525 0.720606 14.298 0.658248C14.4435 0.595891 14.6011 0.561178 14.7613 0.55617C14.9216 0.551161 15.0813 0.575958 15.231 0.62909C15.3808 0.682222 15.5174 0.762609 15.6329 0.865486C15.7484 0.968364 15.8404 1.09164 15.9035 1.22801C15.9665 1.36438 15.9994 1.51106 16 1.65938C16.0006 1.80769 15.9691 1.95462 15.9072 2.09144C15.8453 2.22827 15.7543 2.35221 15.6397 2.45593L8.84994 9.10528C8.73816 9.21254 8.60416 9.29785 8.45593 9.35612C8.3077 9.41439 8.1483 9.44443 7.98723 9.44443C7.82617 9.44443 7.66676 9.41439 7.51854 9.35612C7.37031 9.29785 7.2363 9.21254 7.12453 9.10528L0.334743 2.45593C0.114545 2.24425 -0.00577736 1.96037 0.000213623 1.66667C0.00620461 1.37297 0.138021 1.09349 0.366694 0.889641Z" fill="#4D4D4D"/>
</svg>
