<svg width="20" height="20" viewBox="0 0 20 20" fill="none" xmlns="http://www.w3.org/2000/svg">
<path d="M5.55545 18.9733H14.4447C16.1776 18.9733 17.0397 18.0944 17.0397 16.3533V8.75293H10.9794C9.90795 8.75293 9.40581 8.24221 9.40581 7.17078V1.02686H5.55545C3.83116 1.02686 2.96045 1.914 2.96045 3.65543V16.3533C2.96045 18.1026 3.83116 18.9733 5.55545 18.9733ZM11.0047 7.60614H16.9476C16.889 7.26293 16.6462 6.92793 16.2529 6.51793L11.6322 1.82221C11.2472 1.42043 10.8958 1.17757 10.544 1.11864V7.15436C10.544 7.45543 10.7033 7.60614 11.0047 7.60614ZM6.77759 12.3776C6.43438 12.3776 6.19152 12.1347 6.19152 11.8083C6.19152 11.4815 6.43438 11.239 6.77724 11.239H13.2308C13.5658 11.239 13.8254 11.4819 13.8254 11.8079C13.8254 12.1347 13.5658 12.3772 13.2312 12.3772L6.77759 12.3776ZM6.77759 15.5665C6.43438 15.5665 6.19152 15.3236 6.19152 14.9972C6.19152 14.6708 6.43438 14.4279 6.77724 14.4279H13.2308C13.5658 14.4279 13.8254 14.6708 13.8254 14.9972C13.8254 15.3236 13.5658 15.5665 13.2312 15.5665H6.77759Z" fill="#999999"/>
</svg>
