<svg width="18" height="20" viewBox="0 0 18 20" fill="none" xmlns="http://www.w3.org/2000/svg">
<g clip-path="url(#clip0_597_2667)">
<path d="M12.477 12.4999L8.75 16.2261L5.02305 12.4999C2.23047 12.621 0 14.9062 0 17.7261C0 18.3291 0.239563 18.9075 0.665989 19.3339C1.09241 19.7604 1.67077 19.9999 2.27383 19.9999H15.2262C15.8292 19.9999 16.4076 19.7604 16.834 19.3339C17.2604 18.9075 17.5 18.3291 17.5 17.7261C17.5 14.9062 15.2695 12.621 12.477 12.4999ZM8.75 11.8749C10.0761 11.8749 11.3479 11.3481 12.2855 10.4105C13.2232 9.47277 13.75 8.201 13.75 6.87492V2.57101C13.7503 2.31633 13.6728 2.06762 13.5279 1.85819C13.383 1.64876 13.1775 1.4886 12.9391 1.39914L9.62773 0.158905C9.06182 -0.0532939 8.43818 -0.0532939 7.87227 0.158905L4.56094 1.4007C4.32273 1.49007 4.11746 1.64999 3.97256 1.85911C3.82765 2.06824 3.75001 2.31659 3.75 2.57101V6.87492C3.75 8.201 4.27678 9.47277 5.21447 10.4105C6.15215 11.3481 7.42392 11.8749 8.75 11.8749ZM7.1875 2.79953C7.1875 2.74773 7.20808 2.69805 7.24471 2.66142C7.28133 2.6248 7.33101 2.60422 7.38281 2.60422H8.2293V1.75773C8.2293 1.70593 8.24987 1.65625 8.2865 1.61963C8.32313 1.583 8.37281 1.56242 8.42461 1.56242H9.07539C9.12719 1.56242 9.17687 1.583 9.2135 1.61963C9.25013 1.65625 9.2707 1.70593 9.2707 1.75773V2.60422H10.1172C10.169 2.60422 10.2187 2.6248 10.2553 2.66142C10.2919 2.69805 10.3125 2.74773 10.3125 2.79953V3.45031C10.3125 3.50211 10.2919 3.55179 10.2553 3.58842C10.2187 3.62505 10.169 3.64562 10.1172 3.64562H9.2707V4.49211C9.2707 4.54391 9.25013 4.59359 9.2135 4.63022C9.17687 4.66684 9.12719 4.68742 9.07539 4.68742H8.42461C8.37281 4.68742 8.32313 4.66684 8.2865 4.63022C8.24987 4.59359 8.2293 4.54391 8.2293 4.49211V3.64562H7.38281C7.33101 3.64562 7.28133 3.62505 7.24471 3.58842C7.20808 3.55179 7.1875 3.50211 7.1875 3.45031V2.79953ZM5.625 6.24992H11.875V6.87492C11.875 7.70372 11.5458 8.49858 10.9597 9.08463C10.3737 9.67068 9.5788 9.99992 8.75 9.99992C7.9212 9.99992 7.12634 9.67068 6.54029 9.08463C5.95424 8.49858 5.625 7.70372 5.625 6.87492V6.24992Z" fill="#999999"/>
</g>
<defs>
<clipPath id="clip0_597_2667">
<rect width="17.5" height="20" fill="white"/>
</clipPath>
</defs>
</svg>
