<svg width="27" height="16" viewBox="0 0 27 16" fill="none" xmlns="http://www.w3.org/2000/svg">
<path fill-rule="evenodd" clip-rule="evenodd" d="M0 1.2C0 0.88174 0.133342 0.576515 0.370693 0.351472C0.608044 0.126428 0.92996 0 1.26562 0H25.7344C26.07 0 26.392 0.126428 26.6293 0.351472C26.8667 0.576515 27 0.88174 27 1.2C27 1.51826 26.8667 1.82348 26.6293 2.04853C26.392 2.27357 26.07 2.4 25.7344 2.4H1.26562C0.92996 2.4 0.608044 2.27357 0.370693 2.04853C0.133342 1.82348 0 1.51826 0 1.2ZM0 8C0 7.68174 0.133342 7.37652 0.370693 7.15147C0.608044 6.92643 0.92996 6.8 1.26562 6.8H25.7344C26.07 6.8 26.392 6.92643 26.6293 7.15147C26.8667 7.37652 27 7.68174 27 8C27 8.31826 26.8667 8.62348 26.6293 8.84853C26.392 9.07357 26.07 9.2 25.7344 9.2H1.26562C0.92996 9.2 0.608044 9.07357 0.370693 8.84853C0.133342 8.62348 0 8.31826 0 8ZM1.26562 13.6C0.92996 13.6 0.608044 13.7264 0.370693 13.9515C0.133342 14.1765 0 14.4817 0 14.8C0 15.1183 0.133342 15.4235 0.370693 15.6485C0.608044 15.8736 0.92996 16 1.26562 16H25.7344C26.07 16 26.392 15.8736 26.6293 15.6485C26.8667 15.4235 27 15.1183 27 14.8C27 14.4817 26.8667 14.1765 26.6293 13.9515C26.392 13.7264 26.07 13.6 25.7344 13.6H1.26562Z" fill="#B36868"/>
</svg>
