<svg width="24" height="24" viewBox="0 0 24 24" fill="none" xmlns="http://www.w3.org/2000/svg">
<path fill-rule="evenodd" clip-rule="evenodd" d="M8.9 13.3C9.21826 13.5387 9.42866 13.894 9.48492 14.2879C9.54119 14.6817 9.43869 15.0817 9.2 15.4L7.7 17.4C7.56028 17.5863 7.3791 17.7375 7.17082 17.8416C6.96254 17.9458 6.73287 18 6.5 18H4.5C4.10218 18 3.72064 17.842 3.43934 17.5607C3.15804 17.2794 3 16.8978 3 16.5C3 16.1022 3.15804 15.7206 3.43934 15.4393C3.72064 15.158 4.10218 15 4.5 15H5.75L6.8 13.6C6.91819 13.4424 7.06626 13.3097 7.23576 13.2093C7.40526 13.1089 7.59286 13.0429 7.78787 13.0151C7.98287 12.9872 8.18145 12.998 8.37227 13.0469C8.56309 13.0958 8.74241 13.1818 8.9 13.3Z" fill="#999999"/>
<path d="M19.737 15.1965H18.135L17.85 15.0655C17.12 14.2545 15.938 12.4915 14.9475 11.886C14.5365 11.632 14.0626 11.4983 13.5795 11.5H10.75L11.043 18H13.4075C13.8008 17.9994 14.189 17.9113 14.544 17.742C14.9096 17.5675 15.235 17.3189 15.4995 17.012L15.7845 16.6845C16.144 17.084 16.476 18 17.0095 18H19.804C20.139 18 20.393 17.8525 20.63 17.5895C20.867 17.3265 21 16.97 21 16.5985C21 16.2265 20.867 15.87 20.63 15.6075C20.393 15.3445 20.072 15.1965 19.737 15.1965ZM20 7.75C20 8.61195 19.6576 9.4386 19.0481 10.0481C18.4386 10.6576 17.612 11 16.75 11C15.888 11 15.0614 10.6576 14.4519 10.0481C13.8424 9.4386 13.5 8.61195 13.5 7.75C13.5 6.88805 13.8424 6.0614 14.4519 5.4519C15.0614 4.84241 15.888 4.5 16.75 4.5C17.612 4.5 18.4386 4.84241 19.0481 5.4519C19.6576 6.0614 20 6.88805 20 7.75Z" fill="#999999"/>
<path fill-rule="evenodd" clip-rule="evenodd" d="M16.75 10C17.3467 10 17.919 9.76295 18.341 9.34099C18.7629 8.91903 19 8.34674 19 7.75C19 7.15326 18.7629 6.58097 18.341 6.15901C17.919 5.73705 17.3467 5.5 16.75 5.5C16.1533 5.5 15.581 5.73705 15.159 6.15901C14.7371 6.58097 14.5 7.15326 14.5 7.75C14.5 8.34674 14.7371 8.91903 15.159 9.34099C15.581 9.76295 16.1533 10 16.75 10ZM16.75 11C17.612 11 18.4386 10.6576 19.0481 10.0481C19.6576 9.4386 20 8.61195 20 7.75C20 6.88805 19.6576 6.0614 19.0481 5.4519C18.4386 4.84241 17.612 4.5 16.75 4.5C15.888 4.5 15.0614 4.84241 14.4519 5.4519C13.8424 6.0614 13.5 6.88805 13.5 7.75C13.5 8.61195 13.8424 9.4386 14.4519 10.0481C15.0614 10.6576 15.888 11 16.75 11Z" fill="#999999"/>
</svg>
