<svg width="9" height="16" viewBox="0 0 9 16" fill="none" xmlns="http://www.w3.org/2000/svg">
<path fill-rule="evenodd" clip-rule="evenodd" d="M8.55479 0.366694C8.75845 0.595564 8.86974 0.902493 8.8642 1.22003C8.85865 1.53757 8.73674 1.83975 8.52523 2.06015L2.70631 7.98723L8.52523 13.9143C8.63509 14.0221 8.72382 14.1525 8.78618 14.298C8.84854 14.4435 8.88325 14.6011 8.88826 14.7613C8.89327 14.9216 8.86847 15.0813 8.81534 15.231C8.76221 15.3808 8.68182 15.5174 8.57894 15.6329C8.47606 15.7484 8.35279 15.8404 8.21642 15.9035C8.08005 15.9665 7.93336 15.9994 7.78505 16C7.63673 16.0006 7.48981 15.9691 7.35299 15.9072C7.21616 15.8453 7.09221 15.7543 6.98849 15.6397L0.339145 8.84994C0.231889 8.73816 0.146576 8.60416 0.0883042 8.45593C0.0300329 8.3077 0 8.1483 0 7.98723C0 7.82617 0.0300329 7.66676 0.0883042 7.51854C0.146576 7.37031 0.231889 7.2363 0.339145 7.12453L6.98849 0.334743C7.20018 0.114545 7.48406 -0.00577736 7.77776 0.000213623C8.07145 0.00620461 8.35094 0.138021 8.55479 0.366694Z" fill="#4D4D4D"/>
</svg>
