<svg width="20" height="20" viewBox="0 0 20 20" fill="none" xmlns="http://www.w3.org/2000/svg">
<path d="M1.66675 7.50008C1.66675 5.92841 1.66675 5.14341 2.15508 4.65508C2.64341 4.16675 3.42841 4.16675 5.00008 4.16675H15.0001C16.5717 4.16675 17.3567 4.16675 17.8451 4.65508C18.3334 5.14341 18.3334 5.92841 18.3334 7.50008C18.3334 7.89258 18.3334 8.08925 18.2117 8.21175C18.0892 8.33341 17.8917 8.33341 17.5001 8.33341H2.50008C2.10758 8.33341 1.91091 8.33341 1.78841 8.21175C1.66675 8.08925 1.66675 7.89175 1.66675 7.50008Z" fill="#999999"/>
<path fill-rule="evenodd" clip-rule="evenodd" d="M2.15508 17.845C1.66675 17.3567 1.66675 16.5717 1.66675 15V10.8333C1.66675 10.4408 1.66675 10.2442 1.78841 10.1217C1.91091 10 2.10841 10 2.50008 10H17.5001C17.8926 10 18.0892 10 18.2117 10.1217C18.3334 10.2442 18.3334 10.4408 18.3334 10.8333V15C18.3334 16.5717 18.3334 17.3567 17.8451 17.845C17.3567 18.3333 16.5717 18.3333 15.0001 18.3333H5.00008C3.42841 18.3333 2.64341 18.3333 2.15508 17.845ZM6.66675 13.3333C6.44573 13.3333 6.23377 13.4211 6.07749 13.5774C5.92121 13.7337 5.83341 13.9457 5.83341 14.1667C5.83341 14.3877 5.92121 14.5996 6.07749 14.7559C6.23377 14.9122 6.44573 15 6.66675 15H13.3334C13.5544 15 13.7664 14.9122 13.9227 14.7559C14.079 14.5996 14.1667 14.3877 14.1667 14.1667C14.1667 13.9457 14.079 13.7337 13.9227 13.5774C13.7664 13.4211 13.5544 13.3333 13.3334 13.3333H6.66675Z" fill="#999999"/>
<path d="M5.8335 2.5V5M14.1668 2.5V5" stroke="#999999" stroke-width="1.66667" stroke-linecap="round"/>
</svg>
