<svg width="21" height="20" viewBox="0 0 21 20" fill="none" xmlns="http://www.w3.org/2000/svg">
<path fill-rule="evenodd" clip-rule="evenodd" d="M5.5 1.66675C4.83696 1.66675 4.20107 1.93014 3.73223 2.39898C3.26339 2.86782 3 3.50371 3 4.16675V15.8334C3 16.4965 3.26339 17.1323 3.73223 17.6012C4.20107 18.07 4.83696 18.3334 5.5 18.3334H10.5C11.163 18.3334 11.7989 18.07 12.2678 17.6012C12.7366 17.1323 13 16.4965 13 15.8334V4.16675C13 3.50371 12.7366 2.86782 12.2678 2.39898C11.7989 1.93014 11.163 1.66675 10.5 1.66675H5.5ZM14.0775 6.07758C14.2338 5.92136 14.4457 5.83359 14.6667 5.83359C14.8876 5.83359 15.0996 5.92136 15.2558 6.07758L18.5892 9.41091C18.7454 9.56719 18.8332 9.77911 18.8332 10.0001C18.8332 10.2211 18.7454 10.433 18.5892 10.5892L15.2558 13.9226C15.0987 14.0744 14.8882 14.1584 14.6697 14.1565C14.4512 14.1546 14.2422 14.0669 14.0877 13.9124C13.9331 13.7579 13.8455 13.5489 13.8436 13.3304C13.8417 13.1119 13.9257 12.9014 14.0775 12.7442L15.9883 10.8334H8.83333C8.61232 10.8334 8.40036 10.7456 8.24408 10.5893C8.0878 10.4331 8 10.2211 8 10.0001C8 9.77907 8.0878 9.56711 8.24408 9.41083C8.40036 9.25455 8.61232 9.16675 8.83333 9.16675H15.9883L14.0775 7.25591C13.9213 7.09964 13.8335 6.88772 13.8335 6.66675C13.8335 6.44578 13.9213 6.23385 14.0775 6.07758Z" fill="#999999"/>
</svg>
