<svg width="20" height="20" viewBox="0 0 20 20" fill="none" xmlns="http://www.w3.org/2000/svg">
<g clip-path="url(#clip0_598_2693)">
<path fill-rule="evenodd" clip-rule="evenodd" d="M20 0V20H0V0H20ZM10.4942 19.3817L10.485 19.3833L10.4258 19.4125L10.4092 19.4158L10.3975 19.4125L10.3383 19.3833C10.3294 19.3806 10.3228 19.3819 10.3183 19.3875L10.315 19.3958L10.3008 19.7525L10.305 19.7692L10.3133 19.78L10.4 19.8417L10.4125 19.845L10.4225 19.8417L10.5092 19.78L10.5192 19.7667L10.5225 19.7525L10.5083 19.3967C10.5061 19.3878 10.5014 19.3828 10.4942 19.3817ZM10.715 19.2875L10.7042 19.2892L10.55 19.3667L10.5417 19.375L10.5392 19.3842L10.5542 19.7425L10.5583 19.7525L10.565 19.7583L10.7325 19.8358C10.7431 19.8386 10.7511 19.8364 10.7567 19.8292L10.76 19.8175L10.7317 19.3058C10.7289 19.2953 10.7233 19.2892 10.715 19.2875ZM10.1192 19.2892C10.1155 19.2869 10.1111 19.2862 10.1069 19.2871C10.1027 19.2881 10.0991 19.2906 10.0967 19.2942L10.0917 19.3058L10.0633 19.8175C10.0639 19.8275 10.0686 19.8342 10.0775 19.8375L10.09 19.8358L10.2575 19.7583L10.2658 19.7517L10.2692 19.7425L10.2833 19.3842L10.2808 19.3742L10.2725 19.3658L10.1192 19.2892Z" fill="white"/>
<path fill-rule="evenodd" clip-rule="evenodd" d="M3.33341 2.5C2.89139 2.5 2.46746 2.67559 2.1549 2.98816C1.84234 3.30072 1.66675 3.72464 1.66675 4.16667V15.8333C1.66675 16.2754 1.84234 16.6993 2.1549 17.0118C2.46746 17.3244 2.89139 17.5 3.33341 17.5H16.6667C17.1088 17.5 17.5327 17.3244 17.8453 17.0118C18.1578 16.6993 18.3334 16.2754 18.3334 15.8333V4.16667C18.3334 3.72464 18.1578 3.30072 17.8453 2.98816C17.5327 2.67559 17.1088 2.5 16.6667 2.5H3.33341ZM7.18758 7.19167C7.20607 7.03235 7.26155 6.87956 7.34957 6.74548C7.4376 6.61141 7.55575 6.49977 7.69458 6.41946C7.83342 6.33915 7.9891 6.29241 8.14921 6.28295C8.30932 6.2735 8.46943 6.30159 8.61675 6.365C9.03675 6.545 9.92341 6.95 11.0467 7.59833C11.8362 8.04953 12.5986 8.54649 13.3301 9.08667C13.4587 9.18236 13.5631 9.3068 13.6351 9.45004C13.7071 9.59328 13.7445 9.75136 13.7445 9.91167C13.7445 10.072 13.7071 10.2301 13.6351 10.3733C13.5631 10.5165 13.4587 10.641 13.3301 10.7367C12.5986 11.2763 11.8362 11.7727 11.0467 12.2233C10.2615 12.682 9.45012 13.0944 8.61675 13.4583C8.46944 13.5219 8.3093 13.5502 8.14912 13.5408C7.98895 13.5314 7.83319 13.4847 7.6943 13.4044C7.55541 13.324 7.43725 13.2123 7.34927 13.0781C7.26128 12.944 7.20591 12.7911 7.18758 12.6317C7.08759 11.7285 7.03863 10.8204 7.04092 9.91167C7.04092 8.61917 7.13425 7.64583 7.18758 7.19167Z" fill="#999999"/>
</g>
<defs>
<clipPath id="clip0_598_2693">
<rect width="20" height="20" fill="white"/>
</clipPath>
</defs>
</svg>
