<svg width="24" height="24" viewBox="0 0 24 24" fill="none" xmlns="http://www.w3.org/2000/svg">
<path d="M7.78021 16.1837C10.6834 19.0864 14.2191 21.3266 17.1016 21.3266C18.3976 21.3266 19.5325 20.8744 20.4466 19.8699C20.9789 19.2771 21.3106 18.5841 21.3106 17.9014C21.3106 17.3991 21.1195 16.917 20.6378 16.5754L17.5636 14.3854C17.0918 14.064 16.7001 13.9033 16.3384 13.9033C15.8764 13.9033 15.4744 14.1647 15.0124 14.6164L14.2992 15.3197C14.1984 15.4217 14.0612 15.4795 13.9178 15.4804C13.7571 15.4804 13.6161 15.4204 13.5059 15.3699C12.8931 15.0386 11.8285 14.1244 10.8338 13.14C9.84936 12.1556 8.93521 11.091 8.61379 10.4683C8.5444 10.3455 8.50656 10.2073 8.50364 10.0663C8.50364 9.936 8.5435 9.80486 8.65407 9.69472L9.35693 8.96186C9.8095 8.49943 10.0705 8.09743 10.0705 7.63543C10.0705 7.27415 9.90979 6.88243 9.5785 6.41015L7.4185 3.36643C7.06707 2.88429 6.57507 2.67343 6.0325 2.67343C5.3695 2.67343 4.6765 2.97472 4.09407 3.54772C3.1195 4.482 2.6875 5.63657 2.6875 6.912C2.6875 9.795 4.88736 13.2909 7.78021 16.1837Z" fill="#B36868"/>
</svg>
