<svg width="18" height="18" viewBox="0 0 18 18" fill="none" xmlns="http://www.w3.org/2000/svg">
<path d="M6.765 5.49833L6.33333 4.44167L5.9 5.49833H6.765ZM2.79167 0.5C2.18388 0.5 1.60098 0.741443 1.17121 1.17121C0.741443 1.60098 0.5 2.18388 0.5 2.79167V13.2083C0.5 13.8161 0.741443 14.399 1.17121 14.8288C1.60098 15.2586 2.18388 15.5 2.79167 15.5H8.01833C7.4607 14.6295 7.16507 13.6171 7.16667 12.5833C7.16667 11.845 7.31417 11.1417 7.58167 10.5H2.79167C2.62591 10.5 2.46694 10.4342 2.34972 10.3169C2.23251 10.1997 2.16667 10.0408 2.16667 9.875C2.16667 9.70924 2.23251 9.55027 2.34972 9.43306C2.46694 9.31585 2.62591 9.25 2.79167 9.25H8.31333C8.81953 8.60062 9.46732 8.07538 10.2073 7.71434C10.9473 7.3533 11.76 7.16598 12.5833 7.16667C13.6171 7.16507 14.6295 7.4607 15.5 8.01833V2.79167C15.5 2.18388 15.2586 1.60098 14.8288 1.17121C14.399 0.741443 13.8161 0.5 13.2083 0.5H2.79167ZM5.70833 13.4167H2.79167C2.62591 13.4167 2.46694 13.3508 2.34972 13.2336C2.23251 13.1164 2.16667 12.9574 2.16667 12.7917C2.16667 12.6259 2.23251 12.4669 2.34972 12.3497C2.46694 12.2325 2.62591 12.1667 2.79167 12.1667H5.70833C5.87409 12.1667 6.03306 12.2325 6.15027 12.3497C6.26748 12.4669 6.33333 12.6259 6.33333 12.7917C6.33333 12.9574 6.26748 13.1164 6.15027 13.2336C6.03306 13.3508 5.87409 13.4167 5.70833 13.4167ZM6.91167 2.55333L8.785 7.13833C8.84777 7.29183 8.84699 7.46397 8.78284 7.61689C8.71868 7.76981 8.59641 7.89098 8.44292 7.95375C8.28942 8.01652 8.11728 8.01574 7.96436 7.95159C7.81144 7.88743 7.69027 7.76516 7.6275 7.61167L7.275 6.74833H5.39L5.03667 7.61167C4.97177 7.76193 4.85052 7.88074 4.69897 7.94257C4.54742 8.0044 4.37766 8.00431 4.22617 7.94232C4.07469 7.88033 3.95357 7.76138 3.88884 7.61105C3.82411 7.46071 3.82093 7.29098 3.88 7.13833L5.755 2.55333C5.80202 2.43857 5.88212 2.3404 5.98511 2.2713C6.0881 2.2022 6.20931 2.1653 6.33333 2.1653C6.45735 2.1653 6.57857 2.2022 6.68156 2.2713C6.78454 2.3404 6.86464 2.43857 6.91167 2.55333ZM11.75 2.78917V3.83083H12.7917C12.9574 3.83083 13.1164 3.89668 13.2336 4.01389C13.3508 4.1311 13.4167 4.29007 13.4167 4.45583C13.4167 4.62159 13.3508 4.78056 13.2336 4.89778C13.1164 5.01499 12.9574 5.08083 12.7917 5.08083H11.75V6.1225C11.75 6.28826 11.6842 6.44723 11.5669 6.56444C11.4497 6.68165 11.2908 6.7475 11.125 6.7475C10.9592 6.7475 10.8003 6.68165 10.6831 6.56444C10.5658 6.44723 10.5 6.28826 10.5 6.1225V5.08083H9.45833C9.29257 5.08083 9.1336 5.01499 9.01639 4.89778C8.89918 4.78056 8.83333 4.62159 8.83333 4.45583C8.83333 4.29007 8.89918 4.1311 9.01639 4.01389C9.1336 3.89668 9.29257 3.83083 9.45833 3.83083H10.5V2.78917C10.5 2.62341 10.5658 2.46444 10.6831 2.34722C10.8003 2.23001 10.9592 2.16417 11.125 2.16417C11.2908 2.16417 11.4497 2.23001 11.5669 2.34722C11.6842 2.46444 11.75 2.62341 11.75 2.78917ZM17.1667 12.5833C17.1667 11.3678 16.6838 10.202 15.8242 9.34243C14.9647 8.48288 13.7989 8 12.5833 8C11.3678 8 10.202 8.48288 9.34243 9.34243C8.48288 10.202 8 11.3678 8 12.5833C8 13.7989 8.48288 14.9647 9.34243 15.8242C10.202 16.6838 11.3678 17.1667 12.5833 17.1667C13.7989 17.1667 14.9647 16.6838 15.8242 15.8242C16.6838 14.9647 17.1667 13.7989 17.1667 12.5833ZM13 13L13.0008 15.0858C13.0008 15.1963 12.9569 15.3023 12.8788 15.3805C12.8007 15.4586 12.6947 15.5025 12.5842 15.5025C12.4737 15.5025 12.3677 15.4586 12.2895 15.3805C12.2114 15.3023 12.1675 15.1963 12.1675 15.0858V13H10.08C9.96949 13 9.86351 12.9561 9.78537 12.878C9.70723 12.7998 9.66333 12.6938 9.66333 12.5833C9.66333 12.4728 9.70723 12.3668 9.78537 12.2887C9.86351 12.2106 9.96949 12.1667 10.08 12.1667H12.1667V10.0833C12.1667 9.97283 12.2106 9.86685 12.2887 9.7887C12.3668 9.71056 12.4728 9.66667 12.5833 9.66667C12.6938 9.66667 12.7998 9.71056 12.878 9.7887C12.9561 9.86685 13 9.97283 13 10.0833V12.1667H15.0858C15.1963 12.1667 15.3023 12.2106 15.3805 12.2887C15.4586 12.3668 15.5025 12.4728 15.5025 12.5833C15.5025 12.6938 15.4586 12.7998 15.3805 12.878C15.3023 12.9561 15.1963 13 15.0858 13H13Z" fill="#B36868"/>
</svg>
