<svg width="9" height="16" viewBox="0 0 9 16" fill="none" xmlns="http://www.w3.org/2000/svg">
<path fill-rule="evenodd" clip-rule="evenodd" d="M0.445213 15.6333C0.241551 15.4044 0.130262 15.0975 0.135804 14.78C0.141346 14.4624 0.263263 14.1603 0.474766 13.9399L6.29369 8.01277L0.474766 2.08568C0.364911 1.97794 0.276178 1.84746 0.21382 1.70197C0.151464 1.55647 0.116751 1.39892 0.111742 1.23866C0.106733 1.07839 0.131531 0.918673 0.184663 0.768959C0.237795 0.619246 0.318181 0.482586 0.421059 0.367078C0.523936 0.25157 0.647212 0.159564 0.783581 0.0965119C0.91995 0.0334596 1.06664 0.000643804 1.21495 9.3785e-06C1.36327 -0.000625047 1.51019 0.0309343 1.64701 0.092818C1.78384 0.154702 1.90779 0.24565 2.01151 0.360275L8.66085 7.15006C8.76811 7.26184 8.85342 7.39584 8.9117 7.54407C8.96997 7.6923 9 7.8517 9 8.01277C9 8.17383 8.96997 8.33324 8.9117 8.48146C8.85342 8.62969 8.76811 8.7637 8.66085 8.87547L2.01151 15.6653C1.79982 15.8855 1.51594 16.0058 1.22224 15.9998C0.928546 15.9938 0.649064 15.862 0.445213 15.6333Z" fill="#4D4D4D"/>
</svg>
