<svg width="24" height="24" viewBox="0 0 24 24" fill="none" xmlns="http://www.w3.org/2000/svg">
<path d="M18.0634 8.50989L9.50343 4.22989C3.75343 1.34989 1.39343 3.70989 4.27343 9.45989L5.14343 11.1999C5.39343 11.7099 5.39343 12.2999 5.14343 12.8099L4.27343 14.5399C1.39343 20.2899 3.74343 22.6499 9.50343 19.7699L18.0634 15.4899C21.9034 13.5699 21.9034 10.4299 18.0634 8.50989ZM14.8334 12.7499H9.43343C9.02343 12.7499 8.68343 12.4099 8.68343 11.9999C8.68343 11.5899 9.02343 11.2499 9.43343 11.2499H14.8334C15.2434 11.2499 15.5834 11.5899 15.5834 11.9999C15.5834 12.4099 15.2434 12.7499 14.8334 12.7499Z" fill="#B36868"/>
</svg>
