<svg width="46" height="46" viewBox="0 0 46 46" fill="none" xmlns="http://www.w3.org/2000/svg">
<path d="M23.5175 36.3889C24.8212 36.2963 26.1076 36.0883 27.3768 35.7648C28.9385 36.2329 30.5863 36.3393 32.1953 36.0759C32.2592 36.0676 32.3235 36.0627 32.3879 36.0611C32.9619 36.0611 33.7157 36.3907 34.8138 37.0852V35.9445C34.8141 35.7457 34.8676 35.5507 34.9689 35.3797C35.0702 35.2087 35.2155 35.068 35.3897 34.9722C35.8675 34.7074 36.3119 34.3982 36.7175 34.0611C38.3175 32.7222 39.2212 30.9389 39.2212 29.05C39.2206 28.4254 39.1212 27.8047 38.9268 27.2111C39.4082 26.3222 39.8008 25.3852 40.0879 24.4148C41.0138 25.7852 41.5138 27.3963 41.5175 29.05C41.5175 31.6167 40.3064 34.013 38.2119 35.763C37.8616 36.0544 37.4936 36.3241 37.1101 36.5704V39.2407C37.1101 40.1593 36.036 40.6852 35.2786 40.1407C34.5621 39.6116 33.8205 39.1172 33.0564 38.6593C32.8367 38.5301 32.6084 38.4163 32.3731 38.3185C31.7434 38.4123 31.1027 38.4599 30.4508 38.4611C27.836 38.4611 25.4194 37.687 23.5175 36.3889ZM9.69158 31.0445C6.38788 28.2852 4.48047 24.5148 4.48047 20.4815C4.48047 12.2333 12.3657 5.64075 21.9934 5.64075C31.6212 5.64075 39.5082 12.2333 39.5082 20.4815C39.5082 28.7296 31.6212 35.3204 21.9934 35.3204C20.9107 35.3204 19.844 35.2383 18.7934 35.0741C18.3397 35.1796 16.5268 36.2426 13.9138 38.1259C12.9694 38.8093 11.6249 38.15 11.6249 37V32.4445C10.948 32.0258 10.3019 31.5592 9.69158 31.0482M18.8582 32.2667C18.936 32.2667 19.0163 32.2728 19.099 32.2852C20.0556 32.4438 21.0237 32.5231 21.9934 32.5222C30.1268 32.5222 36.636 27.0796 36.636 20.4815C36.636 13.8833 30.1268 8.4426 21.9934 8.4426C13.8638 8.4426 7.35084 13.8852 7.35084 20.4815C7.35084 23.6722 8.87121 26.6759 11.5601 28.9241C12.2391 29.4895 12.9774 29.9963 13.7749 30.4445C14.2212 30.6945 14.4971 31.1574 14.4971 31.6574V34.2852C16.5638 32.9148 17.9231 32.2667 18.8564 32.2667" fill="white"/>
<path d="M14.8968 23.0001C15.5108 23.0001 16.0996 22.7562 16.5337 22.3221C16.9678 21.888 17.2117 21.2992 17.2117 20.6853C17.2117 20.0714 16.9678 19.4826 16.5337 19.0485C16.0996 18.6144 15.5108 18.3705 14.8968 18.3705C14.2829 18.3705 13.6941 18.6144 13.26 19.0485C12.8259 19.4826 12.582 20.0714 12.582 20.6853C12.582 21.2992 12.8259 21.888 13.26 22.3221C13.6941 22.7562 14.2829 23.0001 14.8968 23.0001ZM22.4191 23.0001C23.033 23.0001 23.6218 22.7562 24.0559 22.3221C24.49 21.888 24.7339 21.2992 24.7339 20.6853C24.7339 20.0714 24.49 19.4826 24.0559 19.0485C23.6218 18.6144 23.033 18.3705 22.4191 18.3705C21.8051 18.3705 21.2164 18.6144 20.7822 19.0485C20.3481 19.4826 20.1043 20.0714 20.1043 20.6853C20.1043 21.2992 20.3481 21.888 20.7822 22.3221C21.2164 22.7562 21.8051 23.0001 22.4191 23.0001ZM29.9431 23.002C30.5571 23.002 31.1459 22.7581 31.58 22.324C32.0141 21.8899 32.258 21.3011 32.258 20.6872C32.258 20.0732 32.0141 19.4844 31.58 19.0503C31.1459 18.6162 30.5571 18.3723 29.9431 18.3723C29.3292 18.3723 28.7404 18.6162 28.3063 19.0503C27.8722 19.4844 27.6283 20.0732 27.6283 20.6872C27.6283 21.3011 27.8722 21.8899 28.3063 22.324C28.7404 22.7581 29.3292 23.002 29.9431 23.002Z" fill="white"/>
</svg>
