<svg width="16" height="10" viewBox="0 0 16 10" fill="none" xmlns="http://www.w3.org/2000/svg">
<path fill-rule="evenodd" clip-rule="evenodd" d="M15.6333 9.11036C15.4044 9.31402 15.0975 9.42531 14.78 9.41977C14.4624 9.41423 14.1603 9.29231 13.9399 9.08081L8.01277 3.26189L2.08568 9.08081C1.97794 9.19066 1.84746 9.27939 1.70197 9.34175C1.55647 9.40411 1.39892 9.43882 1.23866 9.44383C1.07839 9.44884 0.918673 9.42404 0.768959 9.37091C0.619246 9.31778 0.482586 9.23739 0.367078 9.13451C0.25157 9.03164 0.159564 8.90836 0.0965119 8.77199C0.0334596 8.63562 0.000643804 8.48894 9.3785e-06 8.34062C-0.000625047 8.19231 0.0309343 8.04538 0.092818 7.90856C0.154702 7.77173 0.24565 7.64779 0.360275 7.54407L7.15006 0.894718C7.26184 0.787462 7.39584 0.702148 7.54407 0.643877C7.6923 0.585605 7.8517 0.555573 8.01277 0.555573C8.17383 0.555573 8.33324 0.585605 8.48146 0.643877C8.62969 0.702148 8.7637 0.787462 8.87547 0.894718L15.6653 7.54407C15.8855 7.75575 16.0058 8.03963 15.9998 8.33333C15.9938 8.62703 15.862 8.90651 15.6333 9.11036Z" fill="#4D4D4D"/>
</svg>
