<svg width="45" height="45" viewBox="0 0 45 45" fill="none" xmlns="http://www.w3.org/2000/svg">
<rect x="0.5" y="0.5" width="44" height="44" rx="22" fill="#F5F5F5"/>
<path d="M19.5004 28.2505C19.0904 28.2505 18.7504 27.9105 18.7504 27.5005V23.3105L18.0304 24.0305C17.7404 24.3205 17.2604 24.3205 16.9704 24.0305C16.6804 23.7405 16.6804 23.2605 16.9704 22.9705L18.9704 20.9705C19.1804 20.7605 19.5104 20.6905 19.7904 20.8105C20.0704 20.9205 20.2504 21.2005 20.2504 21.5005V27.5005C20.2504 27.9105 19.9104 28.2505 19.5004 28.2505Z" fill="#B36868"/>
<path d="M21.5004 24.2504C21.3104 24.2504 21.1204 24.1804 20.9704 24.0304L18.9704 22.0304C18.6804 21.7404 18.6804 21.2604 18.9704 20.9704C19.2604 20.6804 19.7404 20.6804 20.0304 20.9704L22.0304 22.9704C22.3204 23.2604 22.3204 23.7404 22.0304 24.0304C21.8804 24.1804 21.6904 24.2504 21.5004 24.2504Z" fill="#B36868"/>
<path d="M25.5 33.25H19.5C14.07 33.25 11.75 30.93 11.75 25.5V19.5C11.75 14.07 14.07 11.75 19.5 11.75H24.5C24.91 11.75 25.25 12.09 25.25 12.5C25.25 12.91 24.91 13.25 24.5 13.25H19.5C14.89 13.25 13.25 14.89 13.25 19.5V25.5C13.25 30.11 14.89 31.75 19.5 31.75H25.5C30.11 31.75 31.75 30.11 31.75 25.5V20.5C31.75 20.09 32.09 19.75 32.5 19.75C32.91 19.75 33.25 20.09 33.25 20.5V25.5C33.25 30.93 30.93 33.25 25.5 33.25Z" fill="#B36868"/>
<path d="M32.5 21.2505H28.5C25.08 21.2505 23.75 19.9205 23.75 16.5005V12.5005C23.75 12.2005 23.93 11.9205 24.21 11.8105C24.49 11.6905 24.81 11.7605 25.03 11.9705L33.03 19.9705C33.24 20.1805 33.31 20.5105 33.19 20.7905C33.07 21.0705 32.8 21.2505 32.5 21.2505ZM25.25 14.3105V16.5005C25.25 19.0805 25.92 19.7505 28.5 19.7505H30.69L25.25 14.3105Z" fill="#B36868"/>
</svg>
