<svg width="12" height="12" viewBox="0 0 12 12" fill="none" xmlns="http://www.w3.org/2000/svg">
<path fill-rule="evenodd" clip-rule="evenodd" d="M11.7099 1.376C11.7811 1.30482 11.8377 1.22031 11.8763 1.12728C11.9149 1.03425 11.9348 0.934526 11.9348 0.833805C11.9349 0.733085 11.9151 0.633338 11.8766 0.540261C11.8381 0.447184 11.7817 0.362598 11.7105 0.291334C11.6393 0.22007 11.5548 0.163523 11.4618 0.124922C11.3688 0.0863205 11.269 0.0664208 11.1683 0.0663589C11.0676 0.066297 10.9679 0.0860741 10.8748 0.124561C10.7817 0.163048 10.6971 0.219491 10.6259 0.290667L6.00052 4.916L1.37652 0.290667C1.2326 0.146743 1.03739 0.0658874 0.833853 0.0658875C0.630313 0.0658875 0.43511 0.146743 0.291186 0.290667C0.147262 0.434591 0.0664063 0.629795 0.0664062 0.833334C0.0664062 1.03687 0.147262 1.23208 0.291186 1.376L4.91652 6L0.291186 10.624C0.219922 10.6953 0.163392 10.7799 0.124825 10.873C0.0862567 10.9661 0.0664062 11.0659 0.0664062 11.1667C0.0664062 11.2674 0.0862567 11.3672 0.124825 11.4604C0.163392 11.5535 0.219922 11.6381 0.291186 11.7093C0.43511 11.8533 0.630313 11.9341 0.833853 11.9341C0.934635 11.9341 1.03443 11.9143 1.12754 11.8757C1.22065 11.8371 1.30526 11.7806 1.37652 11.7093L6.00052 7.084L10.6259 11.7093C10.7698 11.8531 10.9649 11.9338 11.1683 11.9336C11.3717 11.9335 11.5668 11.8526 11.7105 11.7087C11.8543 11.5647 11.935 11.3696 11.9348 11.1662C11.9347 10.9628 11.8538 10.7677 11.7099 10.624L7.08452 6L11.7099 1.376Z" fill="black"/>
</svg>
